<mxfile host="app.diagrams.net" modified="2022-12-15T12:51:31.927Z" agent="5.0 (Macintosh; Intel Mac OS X 10_15_7) AppleWebKit/537.36 (KHTML, like Gecko) Chrome/108.0.0.0 Safari/537.36" etag="vl3ifHQbNhYEw1-XG5zO" version="20.2.2" type="github">
  <diagram id="WFubQhuUVxnH6-0ugWmy" name="Page-1">
    <mxGraphModel dx="963" dy="697" grid="1" gridSize="10" guides="1" tooltips="1" connect="1" arrows="1" fold="1" page="1" pageScale="1" pageWidth="850" pageHeight="1100" math="0" shadow="0">
      <root>
        <mxCell id="0" />
        <mxCell id="1" parent="0" />
        <mxCell id="OYxfnonS4S2r5JdDEydp-1" value="" style="verticalLabelPosition=bottom;verticalAlign=top;html=1;shadow=0;dashed=0;strokeWidth=1;shape=mxgraph.android.phone2;strokeColor=#c0c0c0;" vertex="1" parent="1">
          <mxGeometry x="50" y="160" width="200" height="390" as="geometry" />
        </mxCell>
        <mxCell id="OYxfnonS4S2r5JdDEydp-2" value="Username" style="strokeWidth=1;html=1;shadow=0;dashed=0;shape=mxgraph.ios.iTextInput;strokeColor=#444444;buttonText=;fontSize=8;whiteSpace=wrap;align=left;" vertex="1" parent="1">
          <mxGeometry x="90" y="260" width="110" height="20" as="geometry" />
        </mxCell>
        <mxCell id="OYxfnonS4S2r5JdDEydp-3" value="test123" style="strokeWidth=1;html=1;shadow=0;dashed=0;shape=mxgraph.ios.iTextInput;strokeColor=#444444;buttonText=;fontSize=8;whiteSpace=wrap;align=left;" vertex="1" parent="1">
          <mxGeometry x="90" y="290" width="110" height="20" as="geometry" />
        </mxCell>
        <mxCell id="OYxfnonS4S2r5JdDEydp-4" value="Register" style="rounded=1;fillColor=#0057D8;strokeColor=none;html=1;fontColor=#ffffff;align=center;verticalAlign=middle;fontStyle=0;fontSize=12;sketch=0;" vertex="1" parent="1">
          <mxGeometry x="102" y="320" width="86" height="33" as="geometry" />
        </mxCell>
        <mxCell id="OYxfnonS4S2r5JdDEydp-5" value="" style="html=1;shadow=0;dashed=0;align=center;verticalAlign=middle;shape=mxgraph.arrows2.arrow;dy=0.6;dx=40;notch=0;" vertex="1" parent="1">
          <mxGeometry x="280" y="320" width="100" height="70" as="geometry" />
        </mxCell>
        <mxCell id="OYxfnonS4S2r5JdDEydp-22" value="&lt;font style=&quot;font-size: 21px;&quot;&gt;bcrypt&lt;/font&gt;" style="sketch=0;outlineConnect=0;fontColor=#232F3E;gradientColor=none;strokeColor=#ffffff;fillColor=#232F3E;dashed=0;verticalLabelPosition=middle;verticalAlign=bottom;align=center;html=1;whiteSpace=wrap;fontSize=10;fontStyle=1;spacing=3;shape=mxgraph.aws4.productIcon;prIcon=mxgraph.aws4.command_line_interface;" vertex="1" parent="1">
          <mxGeometry x="410" y="295" width="80" height="120" as="geometry" />
        </mxCell>
        <mxCell id="OYxfnonS4S2r5JdDEydp-23" value="&lt;p style=&quot;margin: 0in 0in 11pt 51.1pt; line-height: 11pt; font-size: 10pt; font-family: &amp;quot;Times New Roman&amp;quot;, serif; letter-spacing: 0.3pt; text-align: start;&quot; class=&quot;MsoNormal&quot;&gt;da39a3ee5e6b4b0d3255bfef95601890afd80709&lt;/p&gt;" style="html=1;verticalLabelPosition=bottom;align=center;labelBackgroundColor=#ffffff;verticalAlign=top;strokeWidth=2;strokeColor=#0080F0;shadow=0;dashed=0;shape=mxgraph.ios7.icons.document;fontSize=21;" vertex="1" parent="1">
          <mxGeometry x="660" y="251.5" width="119" height="170" as="geometry" />
        </mxCell>
        <mxCell id="OYxfnonS4S2r5JdDEydp-24" value="" style="html=1;shadow=0;dashed=0;align=center;verticalAlign=middle;shape=mxgraph.arrows2.arrow;dy=0.6;dx=40;notch=0;" vertex="1" parent="1">
          <mxGeometry x="530" y="320" width="100" height="70" as="geometry" />
        </mxCell>
      </root>
    </mxGraphModel>
  </diagram>
</mxfile>
